<svg xmlns="http://www.w3.org/2000/svg" viewBox="0 0 100 100"><rect width="100" height="100" rx="22" fill="#ccff00"/><path transform="translate(22.39 21.50) scale(0.10052)" d="M302 557Q248 557 217 536Q185 515 169 481Q153 447 148 408Q143 368 143 331Q143 296 145 266Q146 235 149 207Q151 178 154 151Q134 152 116 153Q97 154 81 156Q38 161 23 146Q7 131 2 104Q-5 65 10 40Q25 15 56 10Q94 3 154 4Q213 5 275 7Q334 8 385 9Q435 9 470 2Q501 -4 518 7Q535 18 543 38Q550 58 549 81Q548 107 537 125Q526 142 500 147Q489 149 476 151Q462 152 446 153Q430 153 413 154Q395 154 377 154Q358 153 338 153Q336 171 335 191Q333 211 332 232Q330 252 330 273Q329 293 329 314Q329 348 334 365Q339 381 348 386Q356 391 365 391Q377 391 386 384Q395 377 406 363Q416 351 429 341Q441 331 458 331Q474 331 491 342Q507 353 519 371Q531 388 531 409Q531 431 522 450Q512 469 496 485Q472 509 439 525Q405 541 369 549Q333 557 302 557Z" fill="#0e0e0c"/></svg>
